<svg width="76" height="91" viewBox="0 0 76 91" fill="none" xmlns="http://www.w3.org/2000/svg">
<path d="M18.8628 21.6036C18.6998 21.9498 18.5329 22.2732 18.3407 22.6046C18.2351 22.7922 18.1296 22.9799 18.0241 23.1676C17.9695 23.2637 17.9149 23.3598 17.8586 23.4588C17.5763 23.959 17.3041 24.4637 17.0309 24.9681C16.9317 25.1504 16.8324 25.3326 16.7332 25.5148C16.6266 25.7105 16.6266 25.7105 16.5179 25.9102C15.8742 25.9303 15.2307 25.9449 14.5867 25.9545C14.3682 25.9586 14.1497 25.9641 13.9313 25.9711C11.7197 26.0405 11.7197 26.0405 10.7488 25.3174C9.54875 24.2426 9.03412 22.8097 9.00065 21.2994C8.98722 19.5737 9.17237 18.1972 10.5091 16.8934C11.4242 16.0913 12.3052 15.9841 13.5375 16.0018C13.6388 16.0046 13.7402 16.0073 13.8445 16.0102C14.1572 16.0187 14.4694 16.0212 14.7821 16.0228C16.2989 16.0415 16.2989 16.0415 16.811 16.355C17.0312 16.723 17.0312 16.723 17.2604 17.1867C17.3014 17.2687 17.3424 17.3507 17.3846 17.4351C17.5152 17.6971 17.644 17.9597 17.7728 18.2223C17.86 18.3981 17.9473 18.5739 18.0347 18.7496C18.1956 19.073 18.3556 19.3966 18.5151 19.7205C18.633 19.9566 18.7561 20.1907 18.8911 20.419C19.0941 20.8354 18.9708 21.1689 18.8628 21.6036Z" fill="#FAFAFA"/>
<path d="M66.1597 24.2798C66.1181 24.3491 66.0764 24.4183 66.0336 24.4897C65.9376 24.4897 65.8416 24.4897 65.7427 24.4897C65.7157 24.5879 65.6887 24.6861 65.6608 24.7872C65.3543 25.3481 64.8334 25.726 64.1891 25.9257C63.7356 26.0067 63.3022 26.0011 62.8405 25.9992C62.7445 25.999 62.6485 25.9988 62.5495 25.9986C62.2443 25.9979 61.939 25.9962 61.6338 25.9944C61.4262 25.9938 61.2186 25.9931 61.0111 25.9926C60.5035 25.9911 59.996 25.9887 59.4884 25.9859C58.7845 24.7571 58.0815 23.5268 57.434 22.2708C57.3526 22.1143 57.2712 21.9577 57.1874 21.7964C56.9588 21.2166 56.9306 20.772 57.1512 20.1846C57.2136 20.0656 57.276 19.9466 57.3402 19.824C57.4091 19.691 57.4781 19.558 57.549 19.421C57.6221 19.2842 57.6951 19.1473 57.7703 19.0063C57.8406 18.871 57.9108 18.7358 57.9831 18.5964C59.1425 16.3799 59.1425 16.3799 59.4884 16.0563C60.1123 16.0199 60.737 16.0194 61.3619 16.0162C61.6745 16.0139 61.9868 16.0079 62.2994 16.0019C63.5823 15.988 64.4937 16.0337 65.4768 16.8687C66.0989 17.6392 66.4604 18.3994 66.7608 19.3209C67.2982 20.8287 66.8571 22.8652 66.1597 24.2798Z" fill="#FBFBFB"/>
<path d="M74.928 61.3698C74.4084 62.133 73.8668 62.6556 72.985 62.9264C72.3217 62.9976 71.6653 63.0069 70.9995 62.9965C70.6887 62.9921 70.3782 62.9935 70.0674 62.9954C68.5721 62.9883 68.5721 62.9883 68.2266 62.737C68.0306 62.4439 67.8871 62.1583 67.7489 61.8315C67.6951 61.7056 67.6412 61.5797 67.5857 61.45C67.5299 61.3169 67.4742 61.1838 67.4168 61.0467C67.301 60.7737 67.1852 60.5008 67.0693 60.2279C66.9861 60.031 66.9861 60.031 66.9012 59.8301C66.659 59.2658 66.398 58.711 66.133 58.1579C65.94 57.5689 65.9602 57.075 66.1731 56.4944C66.2433 56.3547 66.3135 56.2149 66.3858 56.0709C66.4624 55.9157 66.539 55.7606 66.6179 55.6007C66.7395 55.3609 66.7395 55.3609 66.8636 55.1164C67.022 54.7987 67.1801 54.4809 67.338 54.163C67.4122 54.0144 67.4864 53.8657 67.5628 53.7126C67.7953 53.2325 67.9967 52.7451 68.1967 52.2499C68.5824 51.8501 69.8547 52.0511 70.3968 52.0469C70.6271 52.0444 70.8575 52.0403 71.0878 52.0345C73.4192 51.9764 73.4192 51.9764 74.2367 52.6483C76.4458 54.8998 76.4654 58.7478 74.928 61.3698Z" fill="#FBFBFB"/>
<path d="M67.904 42.5891C67.7486 42.7523 67.5904 42.9132 67.4302 43.0724C67.3236 43.1821 67.3236 43.1821 67.2147 43.2941C66.3224 44.0571 65.2962 44.0105 64.1528 43.9924C63.8208 43.988 63.4898 43.9924 63.1578 43.9976C62.9458 43.997 62.7338 43.996 62.5218 43.9944C62.3307 43.9935 62.1397 43.9926 61.9428 43.9916C61.4535 43.8863 61.4535 43.8863 61.1201 43.5187C61.0377 43.3714 60.9553 43.2241 60.8704 43.0724C60.8016 42.9509 60.7327 42.8295 60.6617 42.7043C60.5994 42.5822 60.5371 42.4601 60.473 42.3342C60.4038 42.1992 60.3347 42.0641 60.2634 41.9249C60.1932 41.786 60.1229 41.647 60.0505 41.5039C59.9791 41.3644 59.9077 41.225 59.8341 41.0813C59.6427 40.7059 59.4516 40.3307 59.2669 39.9524C59.1792 39.7916 59.1792 39.7916 59.0896 39.6276C58.8356 38.8417 59.1649 38.1565 59.5346 37.4497C59.6176 37.2899 59.7007 37.1302 59.7863 36.9656C59.8514 36.843 59.8514 36.843 59.9178 36.7179C60.0505 36.4677 60.1811 36.2165 60.3113 35.9652C60.7813 35.0683 60.7813 35.0683 61.0162 34.6619C61.076 34.5571 61.1357 34.4524 61.1973 34.3444C61.7549 33.8546 62.7428 34.0297 63.4777 34.0337C63.8098 34.0345 64.141 34.0282 64.4729 34.0213C65.5312 34.0126 66.4118 34.0109 67.2262 34.7217C67.3272 34.8264 67.3272 34.8264 67.4302 34.9332C67.5737 35.0736 67.5737 35.0736 67.7201 35.2167C69.3005 37.2687 69.481 40.46 67.904 42.5891Z" fill="#FBFBFB"/>
<path d="M16.7522 39.9272C16.6224 40.1925 16.4823 40.4497 16.336 40.7072C16.2848 40.8005 16.2336 40.8938 16.1809 40.9899C16.0186 41.2843 15.8537 41.5773 15.6882 41.8701C15.5759 42.0709 15.4636 42.2717 15.3513 42.4726C15.077 42.9622 14.7989 43.4499 14.5205 43.9375C13.874 43.9512 13.2276 43.9611 12.5809 43.9678C12.3614 43.9705 12.1418 43.9743 11.9222 43.9791C11.6051 43.9858 11.2882 43.9889 10.971 43.9913C10.6855 43.9956 10.6855 43.9956 10.3943 44.0001C9.43128 43.8894 8.70751 43.4056 8.09784 42.6971C7.03649 40.9635 6.79458 39.1244 7.15873 37.1492C7.25816 36.8272 7.37172 36.5264 7.51396 36.2194C7.5802 36.0687 7.64643 35.9181 7.71467 35.7628C8.19572 35.0117 8.95827 34.2947 9.84947 34.0142C10.2058 34.0026 10.5578 33.9982 10.914 34.0008C11.0171 34.001 11.1201 34.0011 11.2263 34.0014C11.555 34.0021 11.8837 34.0039 12.2124 34.0056C12.4354 34.0063 12.6584 34.0069 12.8815 34.0075C13.4278 34.009 13.9742 34.0114 14.5205 34.0142C15.0298 34.8313 15.4796 35.6716 15.9254 36.5209C15.9969 36.6565 16.0684 36.7922 16.1421 36.9319C16.2745 37.183 16.4067 37.4342 16.5388 37.6855C16.6473 37.8918 16.7605 38.096 16.8798 38.2969C17.1212 38.8216 16.9574 39.4088 16.7522 39.9272Z" fill="#FCFCFC"/>
<path d="M9.42235 59.1426C9.37775 59.2371 9.33314 59.3316 9.28718 59.429C9.14571 59.7277 9.00228 60.0254 8.85884 60.3232C8.76308 60.5252 8.66744 60.7272 8.57193 60.9293C7.87928 62.3875 7.87928 62.3875 7.53156 62.9246C6.90247 63.0134 6.2684 62.9958 5.63405 62.9919C5.32054 62.9906 5.00742 62.9949 4.69395 62.9997C3.59218 63.0052 2.7565 62.954 1.81972 62.3214C1.81972 62.2218 1.81972 62.1223 1.81972 62.0197C1.7308 61.9805 1.64188 61.9412 1.55026 61.9008C0.777694 61.4548 0.471006 60.5195 0.23615 59.6822C-0.230772 57.5063 -0.0347514 55.2808 1.08915 53.3554C1.1608 53.2399 1.1608 53.2399 1.23389 53.1221C1.33055 53.1221 1.42722 53.1221 1.52681 53.1221C1.57514 52.9728 1.62347 52.8235 1.67326 52.6697C2.40009 52.1434 2.95332 51.9786 3.84553 52.0022C3.95066 52.0027 4.05579 52.0032 4.1641 52.0038C4.3843 52.0053 4.60448 52.0083 4.82464 52.0127C5.16241 52.0194 5.50003 52.0219 5.83786 52.0238C6.0525 52.0258 6.26713 52.028 6.48176 52.0305C6.58275 52.0316 6.68374 52.0328 6.78779 52.0339C7.49686 52.0486 7.49686 52.0486 7.82448 52.2173C7.98056 52.515 7.98056 52.515 8.14772 52.9047C8.20955 53.0471 8.27138 53.1895 8.33508 53.3362C8.39917 53.4864 8.46327 53.6366 8.52931 53.7913C8.65508 54.0834 8.78113 54.3754 8.90746 54.6673C9.00053 54.8845 9.00053 54.8845 9.09547 55.1061C9.33795 55.6434 9.61448 56.1585 9.90217 56.6714C10.1857 57.5556 9.79988 58.3501 9.42235 59.1426Z" fill="#FBFBFB"/>
<path fill-rule="evenodd" clip-rule="evenodd" d="M68.8634 65.6211C68.7151 66.2485 68.506 66.3962 67.9825 66.7446C67.4582 67.0576 66.9299 67.3628 66.3972 67.6611C65.7575 68.0203 65.1341 68.3996 64.5168 68.796L64.2691 68.9541C63.7821 69.2695 63.3298 69.6104 62.8802 69.9766L62.4626 70.2862C59.6733 72.3683 56.7126 75.1713 55.5823 78.5623L55.2961 78.5623L55.2463 78.9257C55.1271 79.5583 54.9177 80.1564 54.7061 80.7608L54.706 80.7608L54.706 80.761C54.6763 80.8459 54.6465 80.9309 54.6169 81.0162C54.411 81.813 54.314 82.6336 54.2173 83.4522C54.1957 83.635 54.1741 83.8177 54.1513 84L23.0993 84L22.67 81.2812C22.2193 79.6971 21.5871 78.2876 20.8098 76.8452L20.6007 76.4483C20.0453 75.4563 19.3151 74.6196 18.567 73.7701C18.3968 73.5763 18.2289 73.3805 18.0613 73.1845C17.4508 72.4776 16.8099 71.8557 16.0876 71.2644L15.8393 71.061C15.5561 70.8298 15.272 70.5997 14.9876 70.3701L14.7091 70.1446C14.3204 69.8337 13.9485 69.5516 13.518 69.2991L13.2257 69.118L13.2257 68.8318L12.9728 68.7788C12.647 68.6869 12.4094 68.5665 12.1206 68.3919L11.8177 68.2108L11.4996 68.0179C10.6562 67.5122 9.80929 67.0266 8.93334 66.5786C8.81857 66.5068 8.74973 66.4637 8.6901 66.4103C8.60074 66.3304 8.53204 66.2273 8.36039 65.9699C8.22346 65.0523 8.5831 64.4451 9.02131 63.7053C9.05403 63.6501 9.08718 63.5941 9.12059 63.5372C10.4644 61.1618 11.5967 58.7035 12.655 56.1895C12.8843 55.647 13.1305 55.1152 13.3867 54.5847C13.9108 53.4602 14.3028 52.2878 14.6955 51.113L14.7997 50.8016L14.9629 50.3158C15.2936 49.3295 15.6224 48.3425 15.9493 47.3548C16.0342 47.0989 16.1196 46.8432 16.2058 46.5877C16.4706 45.8033 16.7119 45.0133 16.9462 44.2192L17.0443 43.8913C18.1053 40.3337 18.9074 36.7455 19.5156 33.0864C19.6217 32.449 19.7346 31.8132 19.8523 31.1778C20.2544 28.9666 20.5281 26.7508 20.7651 24.5166L20.8096 24.1053C21.2785 19.7304 21.4291 15.3649 21.4102 10.968C21.4086 10.5073 21.4087 10.0466 21.4088 9.58589C21.4087 9.13261 21.4079 8.67933 21.4069 8.22604C21.4065 8.01454 21.4062 7.80304 21.4061 7.59153C21.4047 6.36037 21.3653 5.13883 21.2719 3.91142C21.222 3.18961 21.2128 2.46961 21.2123 1.74633L21.2069 1.32794L21.2061 0.929675L21.2043 0.575952C21.2191 0.453846 21.2276 0.383616 21.2544 0.321278C21.2907 0.236882 21.3607 0.16695 21.5253 0.00234268C22.3871 -0.0335685 22.8368 0.347014 23.4543 0.869609L23.5644 0.962655C26.7128 3.5833 30.64 5.54477 34.5471 6.72788L34.9607 6.8721C36.0407 7.23884 37.1408 7.46464 38.2586 7.68484L38.7233 7.77791C40.6022 8.13489 42.4852 8.19297 44.3939 8.19462L44.7031 8.19491C47.8037 8.1903 50.9092 7.85628 53.8651 6.87098L53.8651 6.87098L53.8652 6.87097L53.8652 6.87097C53.9998 6.85686 54.069 6.8496 54.1384 6.8451C54.212 6.84033 54.2857 6.83865 54.4375 6.8352L54.7326 6.82402C55.1164 6.88902 55.2107 6.9829 55.4392 7.30027C55.4827 7.67189 55.5003 8.00983 55.4988 8.3817L55.5025 8.71467C55.506 9.07391 55.5067 9.43311 55.5073 9.79237L55.5074 9.80614C55.5094 10.0594 55.5117 10.3127 55.5141 10.5661C55.5201 11.2339 55.5237 11.9018 55.5266 12.5697C55.5317 13.6362 55.5405 14.7027 55.5493 15.7692C55.552 16.1408 55.5537 16.5123 55.5552 16.8839L55.5597 17.574L55.5601 17.8838C55.5656 18.566 55.6335 19.2183 55.7254 19.8928C55.7384 20.1532 55.7471 20.414 55.7505 20.6748C55.811 23.6146 56.0919 26.5211 56.4061 29.4432C56.4378 29.7378 56.469 30.0324 56.5002 30.3271C56.7065 32.2507 56.9869 34.148 57.357 36.0469C57.4528 36.5454 57.5438 37.0446 57.6348 37.5439C58.0514 39.802 58.5503 42.0183 59.1827 44.2276C59.2965 44.6266 59.4072 45.0263 59.5168 45.4266C60.3188 48.3305 61.2793 51.1739 62.4509 53.9497L62.5848 54.27C64.0571 57.7696 65.8568 61.4132 68.2508 64.3813C68.5742 64.7928 68.7463 65.1078 68.8634 65.6211ZM19.7072 61.7371C17.4341 61.7371 15.5914 59.8944 15.5914 57.6213C15.5914 55.3482 17.4341 53.5055 19.7072 53.5055C21.9803 53.5055 23.823 55.3482 23.823 57.6213C23.823 59.8944 21.9803 61.7371 19.7072 61.7371ZM21.7651 39.1001C21.7651 41.3732 23.6078 43.2159 25.8809 43.2159C28.154 43.2159 29.9967 41.3732 29.9967 39.1001C29.9967 36.827 28.154 34.9843 25.8809 34.9843C23.6078 34.9843 21.7651 36.827 21.7651 39.1001ZM27.9388 24.6948C25.6658 24.6948 23.823 22.8521 23.823 20.579C23.823 18.3059 25.6658 16.4632 27.9388 16.4632C30.2119 16.4632 32.0546 18.3059 32.0546 20.579C32.0546 22.8521 30.2119 24.6948 27.9388 24.6948ZM44.4021 20.579C44.4021 22.8521 46.2448 24.6948 48.5179 24.6948C50.791 24.6948 52.6337 22.8521 52.6337 20.579C52.6337 18.3059 50.791 16.4632 48.5179 16.4632C46.2448 16.4632 44.4021 18.3059 44.4021 20.579ZM50.5758 43.2159C48.3027 43.2159 46.46 41.3732 46.46 39.1001C46.46 36.827 48.3027 34.9843 50.5758 34.9843C52.8489 34.9843 54.6916 36.8271 54.6916 39.1001C54.6916 41.3732 52.8489 43.2159 50.5758 43.2159ZM51.6047 57.6213C51.6047 59.8944 53.4474 61.7371 55.7205 61.7371C57.9936 61.7371 59.8363 59.8944 59.8363 57.6213C59.8363 55.3482 57.9936 53.5055 55.7205 53.5055C53.4474 53.5055 51.6047 55.3482 51.6047 57.6213Z" fill="#FDFDFD"/>
<path d="M34.3949 89.8085C34.3021 89.8085 34.2093 89.8085 34.1136 89.8085C34.0672 89.9515 34.0208 90.0944 33.973 90.2417C33.3808 90.7868 32.8179 90.8793 32.0274 90.8701C31.4754 90.7782 31.0008 90.4901 30.5971 90.0973C30.4955 89.7837 30.4955 89.7837 30.4565 89.5197C30.3637 89.5197 30.2708 89.5197 30.1752 89.5197C29.9262 88.753 29.9363 88.0649 30.2455 87.3265C30.5949 86.686 31.0605 86.3212 31.7224 86.0538C32.4969 85.8963 33.1518 86.0974 33.8323 86.4871C34.6889 87.3665 34.9502 88.6683 34.3949 89.8085Z" fill="#FA9006"/>
<path d="M47.8986 89.8283C47.8058 89.8283 47.7129 89.8283 47.6173 89.8283C47.5709 89.9712 47.5244 90.1142 47.4766 90.2615C46.8844 90.8066 46.3215 90.8991 45.531 90.8899C44.979 90.798 44.5045 90.5099 44.1008 90.1171C43.9992 89.8035 43.9992 89.8035 43.9601 89.5395C43.8673 89.5395 43.7745 89.5395 43.6788 89.5395C43.4299 88.7728 43.4399 88.0847 43.7492 87.3462C44.0986 86.7058 44.5642 86.341 45.2261 86.0736C46.0006 85.9161 46.6555 86.1172 47.336 86.5069C48.1926 87.3863 48.4539 88.6881 47.8986 89.8283Z" fill="#FA9006"/>
<path d="M41.3775 89.7864C41.1028 90.3021 40.6946 90.5375 40.2022 90.8035C39.3642 91.0493 38.7252 90.9385 37.9759 90.5181C37.5056 90.1759 37.2597 89.7308 37.055 89.1879C36.9494 88.2938 36.9963 87.7285 37.4962 86.984C38.0296 86.3727 38.6291 86.182 39.4022 86.056C40.1407 86.098 40.7008 86.5214 41.2396 87.0127C41.8527 87.9092 41.7687 88.8116 41.3775 89.7864Z" fill="#FC9002"/>
</svg>
