<svg width="800" height="800" viewBox="0 0 800 800" fill="none" xmlns="http://www.w3.org/2000/svg">
<g clip-path="url(#clip0_2003_10)">
<path d="M775 625H262.5C200 625 150 575 150 512.5C150 450 200 400 262.5 400H775C790 400 800 410 800 425C800 440 790 450 775 450H262.5C227.5 450 200 477.5 200 512.5C200 547.5 227.5 575 262.5 575H775C790 575 800 585 800 600C800 615 790 625 775 625Z" fill="white"/>
<path d="M750 625C742.5 625 732.5 620 727.5 612.5C692.5 550 692.5 475 727.5 412.5C735 400 750 397.5 762.5 402.5C775 410 777.5 425 772.5 437.5C745 485 745 540 772.5 587.5C780 600 775 615 762.5 622.5C757.5 625 755 625 750 625Z" fill="white"/>
<path d="M625 800H112.5C50 800 0 750 0 687.5C0 625 50 575 112.5 575H625C640 575 650 585 650 600C650 615 640 625 625 625H112.5C77.5 625 50 652.5 50 687.5C50 722.5 77.5 750 112.5 750H625C640 750 650 760 650 775C650 790 640 800 625 800Z" fill="white"/>
<path d="M600 800C592.5 800 582.5 795 577.5 787.5C542.5 725 542.5 650 577.5 587.5C585 575 600 572.5 612.5 577.5C625 585 627.5 600 622.5 612.5C595 660 595 715 622.5 762.5C630 775 625 790 612.5 797.5C607.5 800 605 800 600 800Z" fill="white"/>
<path d="M422.5 125C407.5 125 397.5 115 397.5 100C397.5 82.5 382.5 62.5 360 50L355 47.5C342.5 40 337.5 25 345 15C352.5 2.50005 367.5 -2.49995 377.5 5.00005L382.5 7.50005C422.5 30 447.5 65 447.5 102.5C447.5 115 437.5 125 422.5 125Z" fill="white"/>
<path d="M537.5 77.5C507.5 72.5 477.5 80 452.5 95C445 100 432.5 100 425 95C417.5 90 407.5 85 397.5 82.5C397.5 87.5 400 95 400 100C400 115 390 125 375 125C360 125 350 115 350 100C350 92.5 347.5 85 342.5 77.5H340C267.5 90 217.5 165 227.5 245C235 302.5 275 390 325 427.5C342.5 440 360 447.5 375 447.5C377.5 447.5 382.5 447.5 385 447.5C397.5 445 407.5 440 417.5 432.5C427.5 425 445 425 455 432.5C465 440 477.5 445 487.5 447.5C507.5 450 527.5 445 550 430C600 392.5 640 305 647.5 247.5C657.5 165 607.5 87.5 537.5 77.5Z" fill="white"/>
</g>
<defs>
<clipPath id="clip0_2003_10">
<rect width="800" height="800" fill="white"/>
</clipPath>
</defs>
</svg>
